<svg xmlns="http://www.w3.org/2000/svg" xmlns:xlink="http://www.w3.org/1999/xlink" viewBox="0 0 649.13 254.67"><defs><style>.cls-1,.cls-3{fill:#fff;}.cls-1,.cls-2,.cls-4{fill-rule:evenodd;}.cls-2{fill:url(#GradientFill_2);}.cls-4{fill:url(#GradientFill_2-2);}</style><linearGradient id="GradientFill_2" x1="310.28" y1="21.63" x2="220.44" y2="21.63" gradientUnits="userSpaceOnUse"><stop offset="0" stop-color="#f6f6f6"/><stop offset="0.19" stop-color="#f1f1f1"/><stop offset="0.41" stop-color="#e2e3e3"/><stop offset="0.66" stop-color="#cacbcb"/><stop offset="0.91" stop-color="#a9aaaa"/><stop offset="1" stop-color="#9c9d9d"/></linearGradient><linearGradient id="GradientFill_2-2" x1="710.39" y1="43.66" x2="477.78" y2="43.65" xlink:href="#GradientFill_2"/></defs><title>Ресурс 1</title><g id="Слой_2" data-name="Слой 2"><g id="_1" data-name="1"><path class="cls-1" d="M57.41,224a32.79,32.79,0,0,1-2.6,12.37,28.68,28.68,0,0,1-7.2,10.58,25.89,25.89,0,0,1-11.14,5.86,36.75,36.75,0,0,1-9.14,1.06H0l10-49.19H37.31q11.17,0,16.23,6.54,3.87,5,3.87,12.78Zm-19.89-.7q0-4.35-2.67-6a8.55,8.55,0,0,0-4.56-1.06h-3.8l-5.13,25.3h3.8a11,11,0,0,0,5.55-1.26q3.38-2,5.13-7.1A38.07,38.07,0,0,0,37,228.43a28,28,0,0,0,.49-5.17Zm72.38-18.62H67.39l-10,49.19h43l2.39-11.6H78.21l1.54-7.66h23l2.25-11.24H82l1.48-7.1h24.1l2.32-11.59Zm75.82,0-10,49.19H158.87l7.87-38.65h-.42l-17.56,38.65H133.09l-1.55-38.65h-.49l-7.87,38.65h-16l10-49.19H145l.92,26.91h.35l11.59-26.91Zm25.85,0H192.74l-10,49.19H201.6l10-49.19Zm53.83,11.24a13.3,13.3,0,0,1-4,9.63,17.1,17.1,0,0,1-10.25,4.92,10.21,10.21,0,0,1,5.19,2.39,8.6,8.6,0,0,1,2.75,6.74l.21,14.27H239.61l.56-12.3a4.58,4.58,0,0,0-1.75-4.08,5.74,5.74,0,0,0-3.24-.77H231l-3.52,17.15H208.62l10-49.19h33a16,16,0,0,1,9.41,2.67,9.92,9.92,0,0,1,4.36,8.57ZM245.65,220a3.67,3.67,0,0,0-1.65-3.27,8.42,8.42,0,0,0-4.67-1.09h-4.92l-2.18,10.54h4.64q5.26,0,7.38-2.32a5.51,5.51,0,0,0,1.4-3.86Zm79.62-15.32L299.9,238.72l-3.09,15.11H278l3.09-15.11-11.38-34.08H290.2l3.45,20.59h.28l11.8-20.59ZM377,222.91a17.94,17.94,0,0,0-4.56-12.58q-6-6.53-18.55-6.53t-20.73,6A30,30,0,0,0,323,223a32.58,32.58,0,0,0-2.6,12.58q0,7.94,4.78,12.93,5.9,6.18,17.92,6.18,12.7,0,21.15-6a29.54,29.54,0,0,0,10.11-13.14,32.77,32.77,0,0,0,2.6-12.58Zm-19.88-.63a37.06,37.06,0,0,1-.84,6.78,44.38,44.38,0,0,1-1.62,6.29,12.47,12.47,0,0,1-4.36,6.11,7.29,7.29,0,0,1-4.35,1.41,5.49,5.49,0,0,1-3.38-1.06q-2.25-1.68-2.25-5.76a35.19,35.19,0,0,1,.74-6.64,38,38,0,0,1,1.72-6.29,12.66,12.66,0,0,1,4.57-6.25,7.3,7.3,0,0,1,4.15-1.27,5.45,5.45,0,0,1,3.51,1.13q2.11,1.61,2.11,5.55Zm65.7,17-2.95,14.55H377.76l10-49.19h18.91l-7,34.64Zm48.9,0-2.95,14.55H426.66l10-49.19h18.9l-7,34.64ZM530,253.83l-7.52-49.19H497.14L470,253.83h18.83l5.41-10.54H509l1.19,10.54Zm-20.8-22.14H498.76L507,216.3h.28l2,15.39Zm80-15.81a13.29,13.29,0,0,1-4,9.63A17.1,17.1,0,0,1,575,230.43a10.24,10.24,0,0,1,5.2,2.39,8.63,8.63,0,0,1,2.74,6.74l.21,14.27H563.47l.57-12.3a4.59,4.59,0,0,0-1.76-4.08,5.73,5.73,0,0,0-3.23-.77h-4.22l-3.51,17.15H532.48l10-49.19h33a15.91,15.91,0,0,1,9.41,2.67,9.92,9.92,0,0,1,4.36,8.57ZM569.52,220a3.65,3.65,0,0,0-1.66-3.27,8.4,8.4,0,0,0-4.67-1.09h-4.92l-2.18,10.54h4.64q5.28,0,7.38-2.32a5.52,5.52,0,0,0,1.41-3.86Zm79.61-15.32-25.37,34.08-3.09,15.11H601.84l3.09-15.11-11.38-34.08h20.52l3.44,20.59h.28l11.8-20.59Z"/><polygon class="cls-1" points="321.55 189.09 303.08 200.71 291.69 200.71 302.19 189.09 321.55 189.09"/><polygon class="cls-2" points="248.85 37.94 266.39 21.63 283.93 5.33 248.85 5.33 213.76 5.33 231.3 21.63 248.85 37.94"/><polygon class="cls-1" points="187.01 0.03 241.37 55.42 214.2 82.05 133.72 0.03 187.01 0.03"/><polygon class="cls-1" points="363.98 0 189.43 178.33 135.48 178.34 308.17 1.86 309.58 0.47 309.56 0.44 309.96 0.03 363.98 0"/><path class="cls-1" d="M111.52,178.21l82.24-81.76,6.83-6.67L113,0H0V38.08H96.92l50,51.24-51.26,51H56.84v38.05Q84.17,178.33,111.52,178.21Z"/><rect class="cls-3" y="53.99" width="41.24" height="124.18"/><path class="cls-1" d="M536.44,178.34H210.12l30-30.58H628.44A153.7,153.7,0,0,1,536.44,178.34Z"/><path class="cls-4" d="M511.19,54.08a100.67,100.67,0,0,0,74.47,33.05h56.52A156.42,156.42,0,0,0,502,.18H460.5Z"/><path class="cls-1" d="M645.73,94.77H585.65a108.3,108.3,0,0,1-80.09-35.5L450,.18H384.7L357.46,28h42.88a58.79,58.79,0,0,1,41.46,17.1H340.7L324.78,61.34H435a58.8,58.8,0,0,1,41.46,17.1H308L292.09,94.69H473.17a58.82,58.82,0,0,1,41.46,17.1H275.34L252.65,135H622.19a26.91,26.91,0,0,0,24.56-37.9Z"/></g></g></svg>